<?xml version="1.0" encoding="utf-8"?>
<!-- Generator: Adobe Illustrator 24.0.3, SVG Export Plug-In . SVG Version: 6.00 Build 0)  -->
<svg version="1.1" id="primary_logo" xmlns="http://www.w3.org/2000/svg" xmlns:xlink="http://www.w3.org/1999/xlink" x="0px"
	 y="0px" viewBox="0 0 340 140" style="enable-background:new 0 0 340 140;" xml:space="preserve">
<style type="text/css">
	.st0{fill:#00B388;}
	.st1{fill:#FFFFFF;}
</style>
<g>
	<path id="element" class="st0" d="M2.5,2.3v32.9h0h114.7V2.3H2.5z M110,28.1H9.7V9.5H110L110,28.1L110,28.1z"/>
	<path class="st1" d="M9.7,89.7H2.5V56.8h7.2v13h12.8v-13h7.2v32.9h-7.2V76.1H9.7V89.7z M45.9,90.2c-7.3,0-12.2-4.6-12.2-12.1
		c0-7.3,4.8-12.4,11.3-12.4c7,0,10.5,4.7,10.5,11.7v2.6h-15c0.8,3.6,3.7,4.6,6.5,4.6c2.5,0,4.3-0.5,6.5-1.9h0.3v5.4
		C51.9,89.6,49.2,90.2,45.9,90.2z M40.5,75.3H49c-0.2-2.4-1.2-4.1-4-4.1C43,71.2,41.1,72.1,40.5,75.3z M74.2,75.9l-3.7,13.8h-6.3
		L57,66.5v-0.3h6.9l3.9,13.9l3.7-13.9h5.6l3.7,13.9l4-13.9h6.6v0.3l-7.2,23.2h-6.3L74.2,75.9z M103,90.2c-5.7,0-8-2.3-8-7.6V56.8h7
		v25.4c0,1.6,0.6,2.2,2,2.2c0.5,0,1.2-0.2,1.6-0.3h0.1v5.7C105.1,90,104.1,90.2,103,90.2z M119.8,90.2c-7.3,0-12.2-4.6-12.2-12.1
		c0-7.3,4.8-12.4,11.3-12.4c7,0,10.5,4.7,10.5,11.7v2.6h-15c0.8,3.6,3.7,4.6,6.5,4.6c2.5,0,4.3-0.5,6.5-1.9h0.3v5.4
		C125.8,89.6,123.1,90.2,119.8,90.2z M114.4,75.3h8.5c-0.2-2.4-1.2-4.1-4-4.1C116.9,71.2,115,72.1,114.4,75.3z M157.9,66.3h5.2v5.6
		h-5.2v9.5c0,2.1,0.8,3,2.9,3c0.6,0,1.3-0.1,2.1-0.3h0.2v5.5c-0.9,0.3-2.3,0.7-4.3,0.7c-5.6,0-7.9-2.6-7.9-8.5v-9.9h-8.9v9.5
		c0,2.1,0.8,3,2.9,3c0.6,0,1.3-0.1,2.1-0.3h0.2v5.5c-0.9,0.3-2.3,0.7-4.3,0.7c-5.6,0-7.9-2.6-7.9-8.5v-9.9h-3.6v-5.6h3.6v-6.4h7v6.4
		h8.9v-6.4h7L157.9,66.3L157.9,66.3z M199.2,67.9c0,7.2-4.8,11.1-12.1,11.1H182v10.7h-7.2V56.8h12.3
		C194.4,56.8,199.2,60.7,199.2,67.9z M186.5,73c3.6,0,5.4-2.1,5.4-5c0-3.1-1.7-5.1-5.4-5.1H182V73H186.5z M214.7,87.4
		c-1.5,1.8-3.8,2.7-6.2,2.7c-4.6,0-8.3-2.8-8.3-7.7c0-4.6,3.7-7.6,9.1-7.6c1.7,0,3.4,0.3,5.2,0.8v-0.4c0-2.5-1.4-3.6-5.2-3.6
		c-2.4,0-4.6,0.7-6.6,1.8h-0.3v-5.6c1.8-1.1,5-2,8.1-2c7.1,0,10.9,3.4,10.9,9.3v14.7h-6.7L214.7,87.4L214.7,87.4z M214.5,82.3v-2
		c-1.1-0.6-2.4-0.8-3.8-0.8c-2.3,0-3.6,0.8-3.6,2.7c0,2,1.4,2.8,3.4,2.8C212.4,85.1,213.8,84.1,214.5,82.3z M225,78
		c0-7.5,5.3-12.3,12.3-12.3c2.5,0,4.8,0.5,6.5,1.8v6h-0.3c-1.5-1.2-3.3-1.8-5.4-1.8c-3.5,0-6.1,2.4-6.1,6.4s2.6,6.3,6.1,6.3
		c2.1,0,3.8-0.7,5.4-1.8h0.3v6c-1.7,1.3-4.1,1.8-6.5,1.8C230.3,90.2,225,85.5,225,78z M255.1,79.1v10.6h-7V56.8h7v18.8l7-9.3h7.9
		v0.3l-8.4,10.6l8.4,12.3v0.3h-8L255.1,79.1z M285.8,87.4c-1.5,1.8-3.8,2.7-6.2,2.7c-4.6,0-8.3-2.8-8.3-7.7c0-4.6,3.7-7.6,9.1-7.6
		c1.7,0,3.4,0.3,5.2,0.8v-0.4c0-2.5-1.4-3.6-5.2-3.6c-2.4,0-4.6,0.7-6.6,1.8h-0.3v-5.6c1.8-1.1,5-2,8.1-2c7.1,0,10.9,3.4,10.9,9.3
		v14.7h-6.7L285.8,87.4L285.8,87.4z M285.6,82.3v-2c-1.1-0.6-2.4-0.8-3.8-0.8c-2.3,0-3.6,0.8-3.6,2.7c0,2,1.4,2.8,3.4,2.8
		C283.5,85.1,285,84.1,285.6,82.3z M304.3,70.1c1.3-2.6,3.1-4.1,5.7-4.1c0.9,0,1.9,0.2,2.3,0.4v6.6H312c-0.8-0.3-1.7-0.5-3.1-0.5
		c-2.2,0-3.8,1.3-4.4,3.7v13.5h-7V66.3h6.7L304.3,70.1L304.3,70.1z M330.9,87.3c-1.5,1.9-3.8,3-7,3c-6,0-9.9-5.5-9.9-12.2
		c0-6.7,3.8-12.3,9.9-12.3c3.1,0,5.3,0.9,6.7,2.7V56.8h7v32.9h-6.7L330.9,87.3L330.9,87.3z M330.7,81.8v-7.5
		c-1.2-1.7-2.7-2.4-4.4-2.4c-3.1,0-5.1,2.2-5.1,6.2s2.1,6.2,5.1,6.2C328,84.2,329.5,83.4,330.7,81.8z M2.5,100.5h20.3v4H7.1v10.1
		h14.3v3.9H7.1v11h15.8v4H2.5V100.5z M39.7,109.7c5.2,0,8.1,3.4,8.1,9.1v14.6h-4.4v-14.5c0-3-1.5-5.2-4.8-5.2
		c-2.7,0-5.1,1.7-5.9,4.2v15.4h-4.4v-23.2h4.4v3.4C34.1,111.4,36.4,109.7,39.7,109.7z M59.5,110.2h6v3.7h-6v12.5
		c0,2.6,1.4,3.5,3.8,3.5c0.7,0,1.4-0.1,1.9-0.3h0.2v3.7c-0.6,0.3-1.5,0.5-2.7,0.5c-5.4,0-7.6-2.5-7.6-7V114h-4v-3.7h4v-6.2h4.4
		C59.5,104.1,59.5,110.2,59.5,110.2z M79.7,133.9c-6.8,0-11.4-4.5-11.4-11.8c0-7.3,4.3-12.3,10.6-12.3c6.4,0,9.7,4.6,9.7,11.4v2
		H72.6c0.5,4.7,3.5,7,7.6,7c2.6,0,4.4-0.6,6.5-2.1h0.2v3.9C85,133.3,82.6,133.9,79.7,133.9z M72.8,119.5h11.5
		c-0.2-3.4-1.8-6.1-5.4-6.1C75.6,113.5,73.4,116,72.8,119.5z M98.1,113.8c1-2.5,3.2-4,5.7-4c1,0,1.9,0.2,2.3,0.4v4.3H106
		c-0.6-0.3-1.7-0.5-2.7-0.5c-2.4,0-4.4,1.6-5.1,4.2v15.1h-4.4v-23.2h4.4L98.1,113.8L98.1,113.8z M121,109.7
		c6.9,0,10.6,5.6,10.6,12.1c0,6.4-3.7,12.1-10.6,12.1c-2.8,0-5.3-1.5-6.5-3.1v11.5h-4.4v-32.1h4.4v2.6
		C115.7,111.2,118.1,109.7,121,109.7z M120.2,129.9c4.3,0,6.9-3.4,6.9-8.1c0-4.6-2.5-8.1-6.9-8.1c-2.4,0-4.6,1.4-5.7,3.7v8.9
		C115.7,128.6,117.9,129.9,120.2,129.9z M141.1,113.8c1-2.5,3.2-4,5.7-4c1,0,1.9,0.2,2.3,0.4v4.3H149c-0.6-0.3-1.7-0.5-2.7-0.5
		c-2.4,0-4.4,1.6-5.1,4.2v15.1h-4.4v-23.2h4.4L141.1,113.8L141.1,113.8z M155.5,100.8c1.5,0,2.8,1.2,2.8,2.7c0,1.5-1.3,2.7-2.8,2.7
		c-1.5,0-2.8-1.2-2.8-2.7C152.7,102.1,154,100.8,155.5,100.8z M153.3,110.2h4.4v23.2h-4.4V110.2z M173.3,119.9c3.3,1.1,7,2.4,7,6.9
		c0,4.7-3.9,7.2-8.9,7.2c-3.1,0-6.1-0.7-7.9-2.1v-4.2h0.2c2,1.8,4.8,2.6,7.6,2.6c2.5,0,4.7-0.9,4.7-3c0-2.1-1.8-2.5-5.5-3.7
		c-3.3-1.1-6.9-2.3-6.9-6.6c0-4.5,3.7-7.1,8.4-7.1c2.7,0,5.2,0.6,7.1,1.9v4.2H179c-1.9-1.5-4.1-2.4-6.9-2.4c-2.7,0-4.3,1.2-4.3,2.8
		C167.8,118.1,169.5,118.7,173.3,119.9z M195.5,133.9c-6.8,0-11.4-4.5-11.4-11.8c0-7.3,4.3-12.3,10.6-12.3c6.4,0,9.7,4.6,9.7,11.4v2
		h-15.9c0.5,4.7,3.5,7,7.6,7c2.6,0,4.4-0.6,6.5-2.1h0.2v3.9C200.8,133.3,198.4,133.9,195.5,133.9z M188.6,119.5h11.5
		c-0.2-3.4-1.8-6.1-5.4-6.1C191.4,113.5,189.2,116,188.6,119.5z"/>
</g>
</svg>
